<?xml version="1.0" encoding="UTF-8"?>
<svg xmlns="http://www.w3.org/2000/svg" viewBox="0 0 24 24" fill="none" stroke="#1f2a1f" stroke-width="1.5" stroke-linecap="round" stroke-linejoin="round">
  <circle cx="12" cy="12" r="3" />
  <path d="M19.4 15a1.65 1.65 0 0 0 .33 1.82l.06.06a2 2 0 1 1-2.83 2.83l-.06-.06a1.65 1.65 0 0 0-1.82-.33 1.65 1.65 0 0 0-1 1.51V21a2 2 0 1 1-4 0v-.09a1.65 1.65 0 0 0-1-1.51 1.65 1.65 0 0 0-1.82.33l-.06.06A2 2 0 1 1 2.28 19.1l.06-.06a1.65 1.65 0 0 0 .33-1.82 1.65 1.65 0 0 0-1.51-1H3a2 2 0 1 1 0-4h.09a1.65 1.65 0 0 0 1.51-1 1.65 1.65 0 0 0-.33-1.82L4.2 6.2A2 2 0 1 1 7 3.36l.06.06a1.65 1.65 0 0 0 1.82.33h.09A1.65 1.65 0 0 0 11 3.86V3a2 2 0 1 1 4 0v.09c.2.07.39.17.57.29.2.13.39.28.57.45l.06.06A2 2 0 1 1 19.4 6.6l-.06.06c-.17.18-.32.38-.45.58-.12.18-.22.36-.29.55H21a2 2 0 1 1 0 4h-.09c-.07.2-.17.39-.29.57-.13.2-.28.39-.45.57l-.06.06A2 2 0 0 1 19.4 15z" />
</svg>
